<?xml version="1.0" encoding="utf-8"?>
<!-- Generator: Adobe Illustrator 16.0.0, SVG Export Plug-In . SVG Version: 6.00 Build 0)  -->
<!DOCTYPE svg PUBLIC "-//W3C//DTD SVG 1.1 Tiny//EN" "http://www.w3.org/Graphics/SVG/1.1/DTD/svg11-tiny.dtd">
<svg version="1.1" baseProfile="tiny" id="Warstwa_1"
	 xmlns="http://www.w3.org/2000/svg" xmlns:xlink="http://www.w3.org/1999/xlink" x="0px" y="0px" width="37.034px"
	 height="37.027px" viewBox="0 0 37.034 37.027" xml:space="preserve">
<path fill="#0B0B0C" d="M18.518,25.312c-3.767,0-6.821-3.053-6.821-6.819c0-3.769,3.054-6.82,6.821-6.82
	c3.77,0,6.824,3.052,6.824,6.82C25.341,22.259,22.287,25.312,18.518,25.312 M18.518,6.819c-6.729,0-11.696,4.967-11.696,11.694
	s4.967,11.694,11.696,11.694c6.728,0,11.696-4.967,11.696-11.694S25.246,6.819,18.518,6.819 M35.086,21.437h-2.319
	c-0.36,1.71-0.992,3.319-1.887,4.757l1.382,1.345c0.824,0.802,0.824,2.105,0,2.906l-1.492,1.453c-0.824,0.802-2.161,0.802-2.983,0
	l-1.266-1.232c-1.524,1.008-3.228,1.766-5.079,2.146v2.268c0,1.169-0.759,1.949-1.896,1.949h-2.059c-1.135,0-1.894-0.78-1.894-1.949
	v-2.26c-1.886-0.38-3.616-1.153-5.165-2.185L9.144,31.89c-0.825,0.801-2.161,0.801-2.984,0l-1.493-1.453
	c-0.821-0.804-0.821-2.105,0-2.906l1.412-1.376c-0.885-1.428-1.507-3.025-1.865-4.718H1.95C0.78,21.437,0,20.68,0,19.543v-2.058
	c0-1.138,0.78-1.895,1.95-1.895h2.257c0.358-1.729,0.997-3.357,1.904-4.81L4.667,9.377c-0.821-0.803-0.821-2.103,0-2.905L6.16,5.018
	c0.823-0.801,2.159-0.801,2.984,0l1.33,1.295c1.537-1.011,3.253-1.772,5.12-2.146V1.947C15.594,0.779,16.352,0,17.487,0h2.059
	c1.136,0,1.896,0.779,1.896,1.947v2.225c1.832,0.377,3.522,1.121,5.034,2.113l1.311-1.277c0.822-0.804,2.16-0.804,2.983,0
	l1.492,1.453c0.824,0.803,0.824,2.103,0,2.906l-1.414,1.379c0.918,1.461,1.567,3.101,1.93,4.845h2.308
	c1.168,0,1.948,0.757,1.948,1.895v2.058C37.034,20.68,36.255,21.437,35.086,21.437"/>
</svg>
