<?xml version="1.0" encoding="utf-8"?>
<!-- Generator: Adobe Illustrator 16.0.0, SVG Export Plug-In . SVG Version: 6.00 Build 0)  -->
<!DOCTYPE svg PUBLIC "-//W3C//DTD SVG 1.1 Tiny//EN" "http://www.w3.org/Graphics/SVG/1.1/DTD/svg11-tiny.dtd">
<svg version="1.1" baseProfile="tiny" id="Warstwa_1"
	 xmlns="http://www.w3.org/2000/svg" xmlns:xlink="http://www.w3.org/1999/xlink" x="0px" y="0px" width="33.008px"
	 height="38.003px" viewBox="0 0 33.008 38.003" xml:space="preserve">
<g>
	<path fill-rule="evenodd" fill="#0B0B0C" d="M16.504,4.997C7.389,4.997,0,12.386,0,21.499c0,9.115,7.389,16.504,16.504,16.504
		s16.504-7.389,16.504-16.504C33.008,12.386,25.619,4.997,16.504,4.997z M16.244,34.879c-7.461,0-13.508-6.046-13.508-13.507
		c0-7.459,6.047-13.509,13.508-13.509s13.508,6.05,13.508,13.509C29.752,28.833,23.705,34.879,16.244,34.879z M17.486,20.216v-9.937
		h-1.964v11.923h0.023l1.363,1.363l6.613-6.611l-1.386-1.387L17.486,20.216z M14.504,3h4c0.828,0,1.5-0.672,1.5-1.5
		S19.332,0,18.504,0h-4c-0.829,0-1.5,0.672-1.5,1.5S13.675,3,14.504,3z"/>
</g>
</svg>
