<svg xmlns="http://www.w3.org/2000/svg" xmlns:xlink="http://www.w3.org/1999/xlink" version="1.1" width="256" height="256" viewBox="0 0 256 256" xml:space="preserve">
<desc>Created with Fabric.js 1.7.22</desc>
<defs>
</defs>
<g transform="translate(128 128) scale(0.72 0.72)" style="">
	<g style="stroke: none; stroke-width: 0; stroke-dasharray: none; stroke-linecap: butt; stroke-linejoin: miter; stroke-miterlimit: 10; fill: none; fill-rule: nonzero; opacity: 1;" transform="translate(-175.05 -175.05000000000004) scale(3.89 3.89)" >
	<path d="M 88 30.63 H 2 c -1.104 0 -2 -0.896 -2 -2 V 19.54 c 0 -0.833 0.516 -1.578 1.294 -1.872 l 43 -16.212 c 0.455 -0.171 0.956 -0.171 1.411 0 l 43 16.212 C 89.484 17.962 90 18.707 90 19.54 v 9.091 C 90 29.735 89.104 30.63 88 30.63 z M 4 26.63 h 82 v -5.708 L 45 5.465 L 4 20.923 V 26.63 z" style="stroke: none; stroke-width: 1; stroke-dasharray: none; stroke-linecap: butt; stroke-linejoin: miter; stroke-miterlimit: 10; fill: rgb(0,0,0); fill-rule: nonzero; opacity: 1;" transform=" matrix(1 0 0 1 0 0) " stroke-linecap="round" />
	<path d="M 88 88.672 H 2 c -1.104 0 -2 -0.896 -2 -2 V 73.829 c 0 -1.104 0.896 -2 2 -2 h 86 c 1.104 0 2 0.896 2 2 v 12.843 C 90 87.776 89.104 88.672 88 88.672 z M 4 84.672 h 82 v -8.843 H 4 V 84.672 z" style="stroke: none; stroke-width: 1; stroke-dasharray: none; stroke-linecap: butt; stroke-linejoin: miter; stroke-miterlimit: 10; fill: rgb(0,0,0); fill-rule: nonzero; opacity: 1;" transform=" matrix(1 0 0 1 0 0) " stroke-linecap="round" />
	<path d="M 54.063 42.156 H 35.938 c -1.104 0 -2 -0.896 -2 -2 V 28.63 c 0 -1.104 0.896 -2 2 -2 s 2 0.896 2 2 v 9.525 h 14.125 V 28.63 c 0 -1.104 0.896 -2 2 -2 s 2 0.896 2 2 v 11.525 C 56.063 41.26 55.167 42.156 54.063 42.156 z" style="stroke: none; stroke-width: 1; stroke-dasharray: none; stroke-linecap: butt; stroke-linejoin: miter; stroke-miterlimit: 10; fill: rgb(0,0,0); fill-rule: nonzero; opacity: 1;" transform=" matrix(1 0 0 1 0 0) " stroke-linecap="round" />
	<path d="M 25.396 42.156 H 7.271 c -1.104 0 -2 -0.896 -2 -2 V 28.63 c 0 -1.104 0.896 -2 2 -2 s 2 0.896 2 2 v 9.525 h 14.125 V 28.63 c 0 -1.104 0.896 -2 2 -2 s 2 0.896 2 2 v 11.525 C 27.396 41.26 26.5 42.156 25.396 42.156 z" style="stroke: none; stroke-width: 1; stroke-dasharray: none; stroke-linecap: butt; stroke-linejoin: miter; stroke-miterlimit: 10; fill: rgb(0,0,0); fill-rule: nonzero; opacity: 1;" transform=" matrix(1 0 0 1 0 0) " stroke-linecap="round" />
	<path d="M 67.893 64.304 c -1.104 0 -2 -0.896 -2 -2 V 40.156 c 0 -1.104 0.896 -2 2 -2 s 2 0.896 2 2 v 22.148 C 69.893 63.408 68.997 64.304 67.893 64.304 z" style="stroke: none; stroke-width: 1; stroke-dasharray: none; stroke-linecap: butt; stroke-linejoin: miter; stroke-miterlimit: 10; fill: rgb(0,0,0); fill-rule: nonzero; opacity: 1;" transform=" matrix(1 0 0 1 0 0) " stroke-linecap="round" />
	<path d="M 79.44 64.304 c -1.104 0 -2 -0.896 -2 -2 V 40.156 c 0 -1.104 0.896 -2 2 -2 s 2 0.896 2 2 v 22.148 C 81.44 63.408 80.545 64.304 79.44 64.304 z" style="stroke: none; stroke-width: 1; stroke-dasharray: none; stroke-linecap: butt; stroke-linejoin: miter; stroke-miterlimit: 10; fill: rgb(0,0,0); fill-rule: nonzero; opacity: 1;" transform=" matrix(1 0 0 1 0 0) " stroke-linecap="round" />
	<path d="M 82.729 42.156 H 64.604 c -1.104 0 -2 -0.896 -2 -2 V 28.63 c 0 -1.104 0.896 -2 2 -2 s 2 0.896 2 2 v 9.525 h 14.125 V 28.63 c 0 -1.104 0.896 -2 2 -2 s 2 0.896 2 2 v 11.525 C 84.729 41.26 83.834 42.156 82.729 42.156 z" style="stroke: none; stroke-width: 1; stroke-dasharray: none; stroke-linecap: butt; stroke-linejoin: miter; stroke-miterlimit: 10; fill: rgb(0,0,0); fill-rule: nonzero; opacity: 1;" transform=" matrix(1 0 0 1 0 0) " stroke-linecap="round" />
	<path d="M 54.063 75.829 c -1.104 0 -2 -0.896 -2 -2 v -9.525 H 37.938 v 9.525 c 0 1.104 -0.896 2 -2 2 s -2 -0.896 -2 -2 V 62.304 c 0 -1.104 0.896 -2 2 -2 h 18.125 c 1.104 0 2 0.896 2 2 v 11.525 C 56.063 74.934 55.167 75.829 54.063 75.829 z" style="stroke: none; stroke-width: 1; stroke-dasharray: none; stroke-linecap: butt; stroke-linejoin: miter; stroke-miterlimit: 10; fill: rgb(0,0,0); fill-rule: nonzero; opacity: 1;" transform=" matrix(1 0 0 1 0 0) " stroke-linecap="round" />
	<path d="M 82.729 75.829 c -1.104 0 -2 -0.896 -2 -2 v -9.525 H 66.604 v 9.525 c 0 1.104 -0.896 2 -2 2 s -2 -0.896 -2 -2 V 62.304 c 0 -1.104 0.896 -2 2 -2 h 18.125 c 1.104 0 2 0.896 2 2 v 11.525 C 84.729 74.934 83.834 75.829 82.729 75.829 z" style="stroke: none; stroke-width: 1; stroke-dasharray: none; stroke-linecap: butt; stroke-linejoin: miter; stroke-miterlimit: 10; fill: rgb(0,0,0); fill-rule: nonzero; opacity: 1;" transform=" matrix(1 0 0 1 0 0) " stroke-linecap="round" />
	<path d="M 39.226 64.304 c -1.104 0 -2 -0.896 -2 -2 V 40.156 c 0 -1.104 0.896 -2 2 -2 s 2 0.896 2 2 v 22.148 C 41.226 63.408 40.331 64.304 39.226 64.304 z" style="stroke: none; stroke-width: 1; stroke-dasharray: none; stroke-linecap: butt; stroke-linejoin: miter; stroke-miterlimit: 10; fill: rgb(0,0,0); fill-rule: nonzero; opacity: 1;" transform=" matrix(1 0 0 1 0 0) " stroke-linecap="round" />
	<path d="M 50.774 64.304 c -1.104 0 -2 -0.896 -2 -2 V 40.156 c 0 -1.104 0.896 -2 2 -2 s 2 0.896 2 2 v 22.148 C 52.774 63.408 51.879 64.304 50.774 64.304 z" style="stroke: none; stroke-width: 1; stroke-dasharray: none; stroke-linecap: butt; stroke-linejoin: miter; stroke-miterlimit: 10; fill: rgb(0,0,0); fill-rule: nonzero; opacity: 1;" transform=" matrix(1 0 0 1 0 0) " stroke-linecap="round" />
	<path d="M 10.559 64.304 c -1.104 0 -2 -0.896 -2 -2 V 40.156 c 0 -1.104 0.896 -2 2 -2 s 2 0.896 2 2 v 22.148 C 12.559 63.408 11.664 64.304 10.559 64.304 z" style="stroke: none; stroke-width: 1; stroke-dasharray: none; stroke-linecap: butt; stroke-linejoin: miter; stroke-miterlimit: 10; fill: rgb(0,0,0); fill-rule: nonzero; opacity: 1;" transform=" matrix(1 0 0 1 0 0) " stroke-linecap="round" />
	<path d="M 22.107 64.304 c -1.104 0 -2 -0.896 -2 -2 V 40.156 c 0 -1.104 0.896 -2 2 -2 s 2 0.896 2 2 v 22.148 C 24.107 63.408 23.212 64.304 22.107 64.304 z" style="stroke: none; stroke-width: 1; stroke-dasharray: none; stroke-linecap: butt; stroke-linejoin: miter; stroke-miterlimit: 10; fill: rgb(0,0,0); fill-rule: nonzero; opacity: 1;" transform=" matrix(1 0 0 1 0 0) " stroke-linecap="round" />
	<path d="M 25.396 75.829 c -1.104 0 -2 -0.896 -2 -2 v -9.525 H 9.271 v 9.525 c 0 1.104 -0.896 2 -2 2 s -2 -0.896 -2 -2 V 62.304 c 0 -1.104 0.896 -2 2 -2 h 18.125 c 1.104 0 2 0.896 2 2 v 11.525 C 27.396 74.934 26.5 75.829 25.396 75.829 z" style="stroke: none; stroke-width: 1; stroke-dasharray: none; stroke-linecap: butt; stroke-linejoin: miter; stroke-miterlimit: 10; fill: rgb(0,0,0); fill-rule: nonzero; opacity: 1;" transform=" matrix(1 0 0 1 0 0) " stroke-linecap="round" />
</g>
</g>
</svg>