<svg xmlns="http://www.w3.org/2000/svg" xmlns:xlink="http://www.w3.org/1999/xlink" version="1.1" width="256" height="256" viewBox="0 0 256 256" xml:space="preserve">
<desc>Created with Fabric.js 1.7.22</desc>
<defs>
</defs>
<g transform="translate(128 128) scale(0.72 0.72)" style="">
	<g style="stroke: none; stroke-width: 0; stroke-dasharray: none; stroke-linecap: butt; stroke-linejoin: miter; stroke-miterlimit: 10; fill: none; fill-rule: nonzero; opacity: 1;" transform="translate(-175.05 -175.05000000000004) scale(3.89 3.89)" >
	<path d="M 89.379 16.525 c -0.397 -0.378 -0.928 -0.573 -1.478 -0.549 c -6.396 0.316 -13.331 1.377 -21.825 3.338 c -0.541 0.125 -1.007 0.47 -1.283 0.952 c -0.277 0.482 -0.342 1.058 -0.177 1.589 l 0.214 0.69 c -6.143 -1.994 -13.935 -3.059 -20.955 -2.79 c -2.945 0 -6.205 1.372 -9.182 3.421 h -9.718 l 0.409 -1.321 c 0.165 -0.531 0.1 -1.106 -0.177 -1.589 c -0.277 -0.482 -0.742 -0.827 -1.284 -0.952 c -8.495 -1.96 -15.43 -3.021 -21.825 -3.338 c -0.556 -0.021 -1.082 0.172 -1.478 0.549 C 0.225 16.903 0 17.427 0 17.974 v 33.562 c 0 1.104 0.896 2 2 2 h 12.097 c 0.786 0 1.469 -0.473 1.793 -1.172 c 9.743 11.253 19.598 21.258 27.619 21.258 c 1.445 0 2.83 -0.331 4.145 -1.031 c 1.106 0.939 2.464 1.437 3.837 1.437 c 1.513 0 3.026 -0.57 4.185 -1.715 c 0.591 -0.584 1.032 -1.264 1.327 -1.989 c 0.76 0.349 1.591 0.542 2.455 0.547 c 0.013 0 0.025 0 0.038 0 c 1.579 0 3.064 -0.607 4.184 -1.714 c 0.984 -0.973 1.533 -2.208 1.695 -3.484 c 0.11 0.005 0.22 0.016 0.33 0.016 c 1.517 0 3.006 -0.527 4.087 -1.596 c 2.312 -2.283 2.359 -6.005 0.126 -8.347 c -0.093 -0.114 -0.19 -0.223 -0.284 -0.337 l 4.598 -2.798 c 0.361 0.562 0.979 0.927 1.671 0.927 H 88 c 1.104 0 2 -0.896 2 -2 V 17.974 C 90 17.427 89.775 16.903 89.379 16.525 z M 4 49.536 V 20.102 c 5.042 0.376 10.513 1.229 16.923 2.637 l -8.3 26.797 H 4 z M 66.98 61.246 c -0.443 0.438 -1.074 0.474 -1.402 0.45 c -0.611 -0.035 -1.211 -0.295 -1.604 -0.692 c -0.023 -0.024 -0.051 -0.04 -0.075 -0.062 c -0.06 -0.067 -0.104 -0.143 -0.167 -0.208 L 53.03 49.9 c -0.777 -0.786 -2.043 -0.793 -2.828 -0.018 c -0.786 0.776 -0.794 2.042 -0.018 2.828 l 10.701 10.834 c 0.758 0.768 0.75 2.008 -0.017 2.766 c -0.768 0.759 -2.009 0.752 -2.767 -0.017 l -2.374 -2.404 L 45.027 53.057 c -0.775 -0.786 -2.042 -0.793 -2.829 -0.018 c -0.786 0.776 -0.793 2.043 -0.017 2.828 L 52.883 66.7 c 0.758 0.768 0.75 2.009 -0.017 2.767 c -0.768 0.757 -2.009 0.751 -2.767 -0.018 L 37.023 56.212 c -0.775 -0.786 -2.042 -0.794 -2.829 -0.018 c -0.786 0.776 -0.793 2.043 -0.017 2.828 l 10.322 10.449 c -6.41 1.25 -16.736 -9.386 -27.18 -21.578 l 6.417 -20.717 h 6.304 c -1.941 2.055 -3.502 4.293 -4.365 6.39 c -1.663 4.034 -0.253 6.282 0.734 7.263 c 0.053 0.052 0.108 0.102 0.167 0.148 c 3.402 2.696 7.746 4.528 14.261 -1.991 c 1.686 0.039 3.22 -0.256 4.571 -0.889 c 7.847 5.557 15.061 12.361 21.458 20.239 c 0.041 0.051 0.084 0.099 0.13 0.145 c 0.364 0.369 0.563 0.861 0.56 1.387 S 67.349 60.882 66.98 61.246 z M 46.657 34.088 c -0.683 -0.471 -1.585 -0.471 -2.268 -0.002 c -1.1 0.755 -2.418 1.026 -4.153 0.857 c -0.619 -0.064 -1.229 0.169 -1.653 0.621 c -5.196 5.529 -7.364 3.986 -9.41 2.368 c -0.587 -0.698 -0.061 -2.21 0.2 -2.842 c 2.04 -4.949 9.438 -11.334 14.58 -11.336 c 7.653 -0.294 16.497 1.146 22.369 3.608 l 6.614 21.354 l -5.92 3.603 C 60.848 45.288 54.017 39.165 46.657 34.088 z M 86 49.536 h -8.623 l -8.3 -26.797 c 6.409 -1.407 11.882 -2.26 16.923 -2.637 V 49.536 z" style="stroke: none; stroke-width: 1; stroke-dasharray: none; stroke-linecap: butt; stroke-linejoin: miter; stroke-miterlimit: 10; fill: rgb(0,0,0); fill-rule: nonzero; opacity: 1;" transform=" matrix(1 0 0 1 0 0) " stroke-linecap="round" />
</g>
</g>
</svg>