<?xml version="1.0" encoding="utf-8"?>
<!-- Generator: Adobe Illustrator 16.0.0, SVG Export Plug-In . SVG Version: 6.00 Build 0)  -->
<!DOCTYPE svg PUBLIC "-//W3C//DTD SVG 1.1//EN" "http://www.w3.org/Graphics/SVG/1.1/DTD/svg11.dtd">
<svg version="1.1" id="Warstwa_1" xmlns="http://www.w3.org/2000/svg" xmlns:xlink="http://www.w3.org/1999/xlink" x="0px" y="0px"
	 width="47px" height="35px" viewBox="0 0 47 35" enable-background="new 0 0 47 35" xml:space="preserve">
<path fill-rule="evenodd" clip-rule="evenodd" fill="#0B0B0C" d="M45,35h-9c-1.104,0-2-0.896-2-2v-5c0-1.104,0.896-2,2-2h3v-4
	c0-1.104-0.896-2-2-2H25v6h3c1.104,0,2,0.896,2,2v5c0,1.104-0.896,2-2,2h-9c-1.104,0-2-0.896-2-2v-5c0-1.104,0.896-2,2-2h3v-6H10
	c-1.104,0-2,0.896-2,2v4h3c1.104,0,2,0.896,2,2v5c0,1.104-0.896,2-2,2H2c-1.104,0-2-0.896-2-2v-5c0-1.104,0.896-2,2-2h3v-5
	c0-2.209,1.791-4,4-4h13V9h-3c-1.104,0-2-0.896-2-2V2c0-1.104,0.896-2,2-2h9c1.104,0,2,0.896,2,2v5c0,1.104-0.896,2-2,2h-3v8h13
	c2.209,0,4,1.791,4,4v5h3c1.104,0,2,0.896,2,2v5C47,34.104,46.104,35,45,35z M4.5,29C3.671,29,3,29.672,3,30.5
	C3,31.329,3.671,32,4.5,32h4c0.829,0,1.5-0.671,1.5-1.5c0-0.828-0.671-1.5-1.5-1.5H4.5z M25.5,6C26.328,6,27,5.329,27,4.5
	S26.328,3,25.5,3h-4C20.671,3,20,3.671,20,4.5S20.671,6,21.5,6H25.5z M21.5,29c-0.829,0-1.5,0.672-1.5,1.5
	c0,0.829,0.671,1.5,1.5,1.5h4c0.828,0,1.5-0.671,1.5-1.5c0-0.828-0.672-1.5-1.5-1.5H21.5z M42.5,29h-4c-0.829,0-1.5,0.672-1.5,1.5
	c0,0.829,0.671,1.5,1.5,1.5h4c0.828,0,1.5-0.671,1.5-1.5C44,29.672,43.328,29,42.5,29z"/>
</svg>
