<?xml version="1.0" encoding="utf-8"?>
<!-- Generator: Adobe Illustrator 16.0.0, SVG Export Plug-In . SVG Version: 6.00 Build 0)  -->
<!DOCTYPE svg PUBLIC "-//W3C//DTD SVG 1.1//EN" "http://www.w3.org/Graphics/SVG/1.1/DTD/svg11.dtd">
<svg version="1.1" id="Warstwa_1" xmlns="http://www.w3.org/2000/svg" xmlns:xlink="http://www.w3.org/1999/xlink" x="0px" y="0px"
	 width="35px" height="31px" viewBox="0 0 35 31" enable-background="new 0 0 35 31" xml:space="preserve">
<g>
	<g>
		<path fill="#0B0B0C" d="M22.5,28h-10c-0.829,0-1.5,0.672-1.5,1.5s0.671,1.5,1.5,1.5h10c0.828,0,1.5-0.672,1.5-1.5
			S23.328,28,22.5,28z M31,0H4C1.791,0,0,1.791,0,4v18c0,2.209,1.791,4,4,4h27c2.209,0,4-1.791,4-4V4C35,1.791,33.209,0,31,0z
			 M32,21c0,1.104-0.896,2-2,2H5c-1.104,0-2-0.896-2-2V5c0-1.104,0.896-2,2-2h25c1.104,0,2,0.896,2,2V21z M22.338,8.776
			l-4.333,5.837l-0.193-0.202c-0.065-0.115-0.159-0.212-0.27-0.284l-2.56-2.691l-4.971,5.487l1.221,1.092l3.75-3.861l3.096,3.179
			L23.7,9.733l1.285,0.902l0.006-4.641l-4.042,1.807L22.338,8.776z"/>
	</g>
</g>
</svg>
