<?xml version="1.0" encoding="utf-8"?>
<!-- Generator: Adobe Illustrator 16.0.0, SVG Export Plug-In . SVG Version: 6.00 Build 0)  -->
<!DOCTYPE svg PUBLIC "-//W3C//DTD SVG 1.1 Tiny//EN" "http://www.w3.org/Graphics/SVG/1.1/DTD/svg11-tiny.dtd">
<svg version="1.1" baseProfile="tiny" id="Warstwa_1"
	 xmlns="http://www.w3.org/2000/svg" xmlns:xlink="http://www.w3.org/1999/xlink" x="0px" y="0px" width="46.99px" height="37.49px"
	 viewBox="0 0 46.99 37.49" xml:space="preserve">
<g>
	<path fill="#0B0B0C" d="M40.043,13.967c-0.272,0-0.537,0.018-0.803,0.046c0.274-0.97,0.422-1.998,0.422-3.058
		C39.662,4.905,34.935,0,29.107,0c-4.595,0-8.504,3.051-9.951,7.308c-1.238-1.171-2.881-1.882-4.684-1.882
		c-3.838,0-6.949,3.23-6.949,7.215c0,0.468,0.042,0.919,0.123,1.36c-0.228-0.022-0.46-0.034-0.695-0.034
		c-3.84,0-6.95,3.231-6.95,7.216c0,3.929,3.231,7.726,6.995,7.812h10v-3c0,0-9.257,0-10,0c-2.308,0-4.223-2.416-4.223-4.81
		c0-2.396,1.87-4.339,4.178-4.339c1.036,0,1.982,0.392,2.709,1.04l0.005-0.005c0.226,0.163,0.499,0.257,0.791,0.257
		c0.773,0,1.402-0.653,1.402-1.456c0-0.313-0.096-0.604-0.258-0.84l0.028-0.025c-0.818-0.796-1.33-1.922-1.33-3.174
		c0-2.394,1.87-4.337,4.174-4.337c2.243,0,4.071,1.833,4.172,4.135l0.03-0.001c0.165,0.612,0.701,1.063,1.345,1.063
		c0.75,0,1.357-0.608,1.397-1.377l0.024-0.002c-0.053-0.381-0.083-0.772-0.083-1.172c0-4.439,3.473-8.042,7.75-8.042
		c4.277,0,7.749,3.603,7.749,8.042c0,1.984-0.694,3.798-1.841,5.201c-0.315,0.265-0.521,0.669-0.521,1.124
		c0,0.804,0.629,1.456,1.402,1.456c0.427,0,0.808-0.206,1.064-0.517l0.019,0.019c0.765-0.855,1.853-1.39,3.063-1.39
		c2.307,0,4.175,1.943,4.175,4.339c0,2.388-2.921,4.805-5.223,4.81h-7v3h8c3.813-0.029,6.995-3.846,6.995-7.812
		C46.99,17.198,43.879,13.967,40.043,13.967z M22.375,20.498l0.621,11.496h3l0.627-11.496v-2.976h-4.248V20.498z M24.487,33.266
		c-0.592,0-1.092,0.204-1.5,0.612c-0.408,0.408-0.612,0.908-0.612,1.5s0.204,1.092,0.612,1.5c0.408,0.408,0.908,0.612,1.5,0.612
		c0.592,0,1.092-0.204,1.5-0.612c0.408-0.408,0.612-0.908,0.612-1.5s-0.204-1.092-0.612-1.5
		C25.579,33.47,25.079,33.266,24.487,33.266z"/>
</g>
</svg>
