<?xml version="1.0" encoding="utf-8"?>
<!-- Generator: Adobe Illustrator 16.0.0, SVG Export Plug-In . SVG Version: 6.00 Build 0)  -->
<!DOCTYPE svg PUBLIC "-//W3C//DTD SVG 1.1//EN" "http://www.w3.org/Graphics/SVG/1.1/DTD/svg11.dtd">
<svg version="1.1" id="Warstwa_1" xmlns="http://www.w3.org/2000/svg" xmlns:xlink="http://www.w3.org/1999/xlink" x="0px" y="0px"
	 width="25px" height="37px" viewBox="0 0 25 37" enable-background="new 0 0 25 37" xml:space="preserve">
<g>
	<g>
		<path fill="#0B0B0C" d="M21,0H4C1.791,0,0,1.791,0,4v29c0,2.209,1.791,4,4,4h17c2.209,0,4-1.791,4-4V4C25,1.791,23.209,0,21,0z
			 M22,32c0,1.104-0.896,2-2,2H5c-1.104,0-2-0.896-2-2V5c0-1.104,0.896-2,2-2h15c1.104,0,2,0.896,2,2V32z M14.5,29h-4
			C9.671,29,9,29.672,9,30.5S9.671,32,10.5,32h4c0.828,0,1.5-0.672,1.5-1.5S15.328,29,14.5,29z M17.338,12.776l-4.333,5.836
			l-0.193-0.201c-0.065-0.115-0.159-0.213-0.27-0.284l-2.56-2.691l-4.971,5.487l1.221,1.091l3.75-3.86l3.096,3.179l5.622-7.599
			l1.285,0.902l0.006-4.641l-4.042,1.807L17.338,12.776z"/>
	</g>
</g>
</svg>
