<svg xmlns="http://www.w3.org/2000/svg" xmlns:xlink="http://www.w3.org/1999/xlink" version="1.1" width="256" height="256" viewBox="0 0 256 256" xml:space="preserve">
<desc>Created with Fabric.js 1.7.22</desc>
<defs>
</defs>
<g transform="translate(128 128) scale(0.72 0.72)" style="">
	<g style="stroke: none; stroke-width: 0; stroke-dasharray: none; stroke-linecap: butt; stroke-linejoin: miter; stroke-miterlimit: 10; fill: none; fill-rule: nonzero; opacity: 1;" transform="translate(-175.05 -175.05000000000004) scale(3.89 3.89)" >
	<path d="M 57.27 66.425 v 3.945 H 32.73 v -3.945 H 0 v 3.307 c 0 3.783 3.067 6.85 6.85 6.85 H 83.15 c 3.783 0 6.85 -3.067 6.85 -6.85 v -3.307 H 57.27 z" style="stroke: none; stroke-width: 1; stroke-dasharray: none; stroke-linecap: butt; stroke-linejoin: miter; stroke-miterlimit: 10; fill: rgb(0,0,0); fill-rule: nonzero; opacity: 1;" transform=" matrix(1 0 0 1 0 0) " stroke-linecap="round" />
	<path d="M 82.459 13.418 H 7.541 c -1.292 0 -2.34 1.048 -2.34 2.34 v 47.599 h 79.598 V 15.758 C 84.799 14.465 83.751 13.418 82.459 13.418 z M 79.261 58.243 H 10.739 V 21.108 c 0 -1.189 0.964 -2.152 2.152 -2.152 h 64.218 c 1.189 0 2.152 0.964 2.152 2.152 V 58.243 z" style="stroke: none; stroke-width: 1; stroke-dasharray: none; stroke-linecap: butt; stroke-linejoin: miter; stroke-miterlimit: 10; fill: rgb(0,0,0); fill-rule: nonzero; opacity: 1;" transform=" matrix(1 0 0 1 0 0) " stroke-linecap="round" />
</g>
</g>
</svg>