<svg xmlns="http://www.w3.org/2000/svg" xmlns:xlink="http://www.w3.org/1999/xlink" version="1.1" width="256" height="256" viewBox="0 0 256 256" xml:space="preserve">
<desc>Created with Fabric.js 1.7.22</desc>
<defs>
</defs>
<g transform="translate(128 128) scale(0.72 0.72)" style="">
	<g style="stroke: none; stroke-width: 0; stroke-dasharray: none; stroke-linecap: butt; stroke-linejoin: miter; stroke-miterlimit: 10; fill: none; fill-rule: nonzero; opacity: 1;" transform="translate(-175.05 -175.05000000000004) scale(3.89 3.89)" >
	<path d="M 74.38 90 H 15.62 c -4.357 0 -7.902 -3.545 -7.902 -7.901 V 41.167 c 0 -4.357 3.545 -7.901 7.902 -7.901 h 58.76 c 4.356 0 7.901 3.544 7.901 7.901 v 40.931 C 82.281 86.455 78.736 90 74.38 90 z M 15.62 37.266 c -2.151 0 -3.902 1.75 -3.902 3.901 v 40.931 c 0 2.151 1.75 3.901 3.902 3.901 h 58.76 c 2.151 0 3.901 -1.75 3.901 -3.901 V 41.167 c 0 -2.151 -1.75 -3.901 -3.901 -3.901 H 15.62 z" style="stroke: none; stroke-width: 1; stroke-dasharray: none; stroke-linecap: butt; stroke-linejoin: miter; stroke-miterlimit: 10; fill: rgb(0,0,0); fill-rule: nonzero; opacity: 1;" transform=" matrix(1 0 0 1 0 0) " stroke-linecap="round" />
	<path d="M 80.281 70.093 H 69.375 c -4.665 0 -8.46 -3.795 -8.46 -8.46 c 0 -4.664 3.795 -8.459 8.46 -8.459 h 10.906 c 1.104 0 2 0.896 2 2 v 12.919 C 82.281 69.197 81.386 70.093 80.281 70.093 z M 69.375 57.174 c -2.459 0 -4.46 2 -4.46 4.459 s 2.001 4.46 4.46 4.46 h 8.906 v -8.919 H 69.375 z" style="stroke: none; stroke-width: 1; stroke-dasharray: none; stroke-linecap: butt; stroke-linejoin: miter; stroke-miterlimit: 10; fill: rgb(0,0,0); fill-rule: nonzero; opacity: 1;" transform=" matrix(1 0 0 1 0 0) " stroke-linecap="round" />
	<circle cx="69.545" cy="61.635" r="1.955" style="stroke: none; stroke-width: 1; stroke-dasharray: none; stroke-linecap: butt; stroke-linejoin: miter; stroke-miterlimit: 10; fill: rgb(0,0,0); fill-rule: nonzero; opacity: 1;" transform="  matrix(1 0 0 1 0 0) "/>
	<path d="M 35.328 21.564 c -5.945 0 -10.782 -4.837 -10.782 -10.782 S 29.383 0 35.328 0 S 46.11 4.837 46.11 10.782 S 41.273 21.564 35.328 21.564 z M 35.328 4 c -3.74 0 -6.782 3.042 -6.782 6.782 s 3.042 6.782 6.782 6.782 s 6.782 -3.042 6.782 -6.782 S 39.068 4 35.328 4 z" style="stroke: none; stroke-width: 1; stroke-dasharray: none; stroke-linecap: butt; stroke-linejoin: miter; stroke-miterlimit: 10; fill: rgb(0,0,0); fill-rule: nonzero; opacity: 1;" transform=" matrix(1 0 0 1 0 0) " stroke-linecap="round" />
	<path d="M 51.516 36.126 c -0.563 -1.329 -0.849 -2.742 -0.849 -4.199 c 0 -5.945 4.837 -10.782 10.782 -10.782 s 10.782 4.837 10.782 10.782 c 0 1.419 -0.271 2.799 -0.808 4.101 l -3.699 -1.523 c 0.336 -0.816 0.507 -1.684 0.507 -2.578 c 0 -3.74 -3.043 -6.782 -6.782 -6.782 s -6.782 3.042 -6.782 6.782 c 0 0.917 0.179 1.805 0.532 2.638 L 51.516 36.126 z" style="stroke: none; stroke-width: 1; stroke-dasharray: none; stroke-linecap: butt; stroke-linejoin: miter; stroke-miterlimit: 10; fill: rgb(0,0,0); fill-rule: nonzero; opacity: 1;" transform=" matrix(1 0 0 1 0 0) " stroke-linecap="round" />
	<path d="M 61.449 17.758 c -1.104 0 -2 -0.896 -2 -2 V 2 c 0 -1.104 0.896 -2 2 -2 s 2 0.896 2 2 v 13.758 C 63.449 16.862 62.554 17.758 61.449 17.758 z" style="stroke: none; stroke-width: 1; stroke-dasharray: none; stroke-linecap: butt; stroke-linejoin: miter; stroke-miterlimit: 10; fill: rgb(0,0,0); fill-rule: nonzero; opacity: 1;" transform=" matrix(1 0 0 1 0 0) " stroke-linecap="round" />
	<path d="M 55.154 20.346 c -1.104 0 -2 -0.896 -2 -2 v -8.223 c 0 -1.104 0.896 -2 2 -2 s 2 0.896 2 2 v 8.223 C 57.154 19.45 56.259 20.346 55.154 20.346 z" style="stroke: none; stroke-width: 1; stroke-dasharray: none; stroke-linecap: butt; stroke-linejoin: miter; stroke-miterlimit: 10; fill: rgb(0,0,0); fill-rule: nonzero; opacity: 1;" transform=" matrix(1 0 0 1 0 0) " stroke-linecap="round" />
	<path d="M 67.743 20.346 c -1.104 0 -2 -0.896 -2 -2 v -3.248 c 0 -1.104 0.896 -2 2 -2 s 2 0.896 2 2 v 3.248 C 69.743 19.45 68.848 20.346 67.743 20.346 z" style="stroke: none; stroke-width: 1; stroke-dasharray: none; stroke-linecap: butt; stroke-linejoin: miter; stroke-miterlimit: 10; fill: rgb(0,0,0); fill-rule: nonzero; opacity: 1;" transform=" matrix(1 0 0 1 0 0) " stroke-linecap="round" />
</g>
</g>
</svg>